<svg width="345" height="211" viewBox="0 0 345 211" fill="none"
    xmlns="http://www.w3.org/2000/svg">
    <path d="M64.4344 19.4886L103.104 98.7864L72.6387 161.256C70.4074 165.818 69.232 170.825 69.1997 175.903C69.1674 180.982 70.279 186.003 72.452 190.593L3.5029 49.2045C1.52608 45.2005 0.359768 40.8453 0.0709735 36.3892C-0.217821 31.933 0.37659 27.4638 1.82006 23.2381C3.26353 19.0124 5.52762 15.1135 8.48226 11.7655C11.4369 8.41742 15.0239 5.68617 19.0371 3.72859C23.0504 1.77102 27.4109 0.625706 31.868 0.358441C36.3252 0.0911763 40.7913 0.707227 45.0097 2.17121C49.2281 3.63518 53.1157 5.91824 56.4492 8.88923C59.7827 11.8602 62.4964 15.4606 64.4344 19.4835V19.4886Z" fill="url(#paint0_linear)"/>
    <path d="M142.622 17.7578L142.678 17.778C140.076 22.5315 138.653 27.8401 138.528 33.2576C138.404 38.6752 139.581 44.0436 141.961 48.9118L172.407 111.346L133.57 190.977C129.708 198.896 122.914 205 114.628 207.995C106.343 210.99 97.2164 210.642 89.1834 207.023L88.2449 206.584C80.166 202.642 73.9834 195.652 71.0568 187.152C68.1302 178.651 68.6992 169.337 72.6387 161.256L142.622 17.7578Z" fill="url(#paint1_linear)"/>
    <path d="M202.893 19.1859L241.704 98.7814L211.238 161.261C209.025 165.789 207.851 170.754 207.802 175.794C207.754 180.834 208.831 185.821 210.956 190.392L141.961 48.9068C139.984 44.9028 138.818 40.5476 138.529 36.0915C138.24 31.6354 138.835 27.1661 140.278 22.9404C141.722 18.7147 143.986 14.8158 146.941 11.4678C149.895 8.11975 153.482 5.3885 157.495 3.43092C161.509 1.47335 165.869 0.328038 170.326 0.0607729C174.783 -0.206492 179.25 0.409559 183.468 1.87354C187.686 3.33752 191.574 5.62057 194.907 8.59156C198.241 11.5625 200.955 15.1629 202.893 19.1859V19.1859Z" fill="url(#paint2_linear)"/>
    <path d="M280.53 19.1859L211.238 161.256C207.442 169.318 206.973 178.551 209.932 186.957C212.891 195.363 219.04 202.266 227.049 206.173C235.058 210.079 244.283 210.675 252.728 207.831C261.174 204.987 268.159 198.932 272.175 190.977L341.467 48.9068C345.263 40.8444 345.733 31.6114 342.774 23.2054C339.815 14.7995 333.666 7.89662 325.656 3.99024C317.647 0.0838542 308.422 -0.511887 299.977 2.33191C291.532 5.1757 284.546 11.2303 280.53 19.1859V19.1859Z" fill="url(#paint3_linear)"/>
    <defs>
        <linearGradient id="paint0_linear" x1="17.3684" y1="4.77949" x2="82.111" y2="131.885" gradientUnits="userSpaceOnUse">
            <stop offset="0.07" stop-color="#4BEAFB"/>
            <stop offset="0.25" stop-color="#49E4F5"/>
            <stop offset="0.49" stop-color="#44D5E4"/>
            <stop offset="0.77" stop-color="#3BBCC9"/>
            <stop offset="0.9" stop-color="#37ADBA"/>
        </linearGradient>
        <linearGradient id="paint1_linear" x1="52.8395" y1="156.916" x2="180.499" y2="83.2519" gradientUnits="userSpaceOnUse">
            <stop stop-color="#00D1FF"/>
            <stop offset="0.17" stop-color="#00CAF7"/>
            <stop offset="0.42" stop-color="#00B8E3"/>
            <stop offset="0.71" stop-color="#009AC3"/>
            <stop offset="0.9" stop-color="#0084AB"/>
        </linearGradient>
        <linearGradient id="paint2_linear" x1="126.809" y1="35.661" x2="252.402" y2="141.013" gradientUnits="userSpaceOnUse">
            <stop stop-color="#006AB7"/>
            <stop offset="0.19" stop-color="#0067B2"/>
            <stop offset="0.39" stop-color="#0360A5"/>
            <stop offset="0.6" stop-color="#075490"/>
            <stop offset="0.82" stop-color="#0D4472"/>
            <stop offset="0.9" stop-color="#103D65"/>
        </linearGradient>
        <linearGradient id="paint3_linear" x1="219.952" y1="202.734" x2="332.734" y2="7.46026" gradientUnits="userSpaceOnUse">
            <stop stop-color="#FF6A1B"/>
            <stop offset="0.2" stop-color="#FD5219"/>
            <stop offset="0.9" stop-color="#F90014"/>
        </linearGradient>
    </defs>
</svg>
